HIERARCHY
ROOT Hips
{
  OFFSET 1.44925e-005 102.336 -0.101585
  CHANNELS 6 Xposition Yposition Zposition Zrotation Xrotation Yrotation
  JOINT LeftUpLeg
  {
    OFFSET 8.9458 -8.66707 0.101652
    CHANNELS 3 Zrotation Xrotation Yrotation
    JOINT LeftLeg
    {
      OFFSET 0 -44.4227 1.3727
      CHANNELS 3 Zrotation Xrotation Yrotation
      JOINT LeftFoot
      {
        OFFSET -0.253549 -42.0924 -1.46059
        CHANNELS 3 Zrotation Xrotation Yrotation
        JOINT LeftToes
        {
          OFFSET -0.04 -4.41509 8.4991
          CHANNELS 3 Zrotation Xrotation Yrotation
          End Site
          {
            OFFSET 0.08 -0.047448 9.77979
          }
        }
      }
    }
  }
  JOINT Spine
  {
    OFFSET 0 11.8905 0
    CHANNELS 3 Zrotation Xrotation Yrotation
    JOINT Spine1
    {
      OFFSET 0 25.6574 0.127663
      CHANNELS 3 Zrotation Xrotation Yrotation
      JOINT RightShoulder
      {
        OFFSET -8.99 -0.362252 -0.22
        CHANNELS 3 Zrotation Xrotation Yrotation
        JOINT RightArm
        {
          OFFSET -10.2827 -0.00338 0.322123
          CHANNELS 3 Zrotation Xrotation Yrotation
          JOINT RightForeArm
          {
            OFFSET -26.364 0.099144 -1.42434
            CHANNELS 3 Zrotation Xrotation Yrotation
            JOINT RightHand
            {
              OFFSET -22.0324 0.085362 1.02216
              CHANNELS 3 Zrotation Xrotation Yrotation
              End Site
              {
                OFFSET -13.3284 -0.6 1.50291
              }
            }
          }
        }
      }
      JOINT LeftShoulder1
      {
        OFFSET 8.99 -0.362252 -0.22
        CHANNELS 3 Zrotation Xrotation Yrotation
        JOINT LeftArm
        {
          OFFSET 10.2827 -0.00337999 0.322123
          CHANNELS 3 Zrotation Xrotation Yrotation
          JOINT LeftForeArm
          {
            OFFSET 26.2597 0.099144 -1.42434
            CHANNELS 3 Zrotation Xrotation Yrotation
            JOINT LeftHand
            {
              OFFSET 22.0902 0.085362 1.02216
              CHANNELS 3 Zrotation Xrotation Yrotation
              End Site
              {
                OFFSET 13.419 -0.6 1.50291
              }
            }
          }
        }
      }
      JOINT Head
      {
        OFFSET 0 8.73416 0.011341
        CHANNELS 3 Zrotation Xrotation Yrotation
        End Site
        {
          OFFSET -0.29 12.7742 2.51395
        }
      }
    }
  }
  JOINT RightUpLeg
  {
    OFFSET -8.9458 -8.66707 0.101652
    CHANNELS 3 Zrotation Xrotation Yrotation
    JOINT RightLeg
    {
      OFFSET 0 -44.4227 1.3727
      CHANNELS 3 Zrotation Xrotation Yrotation
      JOINT RightFoot
      {
        OFFSET 0.253549 -42.0924 -1.46059
        CHANNELS 3 Zrotation Xrotation Yrotation
        JOINT RightToes
        {
          OFFSET 0.04 -4.41509 8.4991
          CHANNELS 3 Zrotation Xrotation Yrotation
          End Site
          {
            OFFSET -0.08 -0.137448 9.77979
          }
        }
      }
    }
  }
}
MOTION
Frames:	14
Frame Time:	0.0333333
189.077 103.048 3.92955 -3.38969 -0.605397 -89.948 -0.00588767 1.54685 2.68743 -0.194048 9.05116 19.5588 -3.20123 -11.1963 -0.0444868 -1.33904e-009 8.75235e-006 -1.47764e-008 4.24735 6.10822 1.25812 -3.59142 -3.86737 2.04403 38.3899 1.76052 -0.0485454 38.8792 -21.5764 2.55135 8.43866 33.662 8.24541 -8.33642 9.56358 -0.405051 -43.1631 3.48418 -3.51651 -27.2332 -17.0151 2.14487 -4.67232 37.7597 -13.5639 5.82328 9.61819 -0.917488 -0.885647 1.48704 -9.75377 -0.063478 2.39404 -4.27608 0.878787 9.54812 -14.33 2.25836 -13.2145 -0.0997106 0.0462048 0.000530889 0.662642 
189.078 103.048 3.92955 -3.39353 -0.606489 -89.9628 -0.00529946 1.534 2.68798 -0.185846 9.08904 19.577 -3.2012 -11.1996 -0.0444873 -1.33904e-009 8.75235e-006 -1.47764e-008 4.2722 6.27996 1.22741 -3.63071 -4.10163 2.017 38.4068 1.76052 -0.0474425 38.8458 -21.4614 2.46613 8.4475 33.5402 8.2825 -8.4524 9.56365 -0.385268 -43.1047 3.488 -3.51826 -27.3338 -16.7906 2.19461 -4.64458 37.4317 -13.6802 5.82328 9.61819 -0.917488 -0.946288 1.35902 -9.69396 -0.0653124 2.39182 -4.27964 0.886746 9.54786 -14.3207 2.25843 -13.2173 -0.0997117 0.0462048 0.000530889 0.662642 
189.082 103.048 3.92955 -3.39888 -0.609165 -90.0094 -0.00368714 1.51262 2.69395 -0.191012 9.14863 19.6189 -3.20574 -11.2187 -0.0444902 -1.33904e-009 8.75235e-006 -1.47764e-008 4.1606 6.31025 1.22633 -3.44851 -4.09188 1.98716 38.2636 1.76052 -0.0418229 38.9423 -21.515 2.51946 8.37397 33.8263 8.30635 -8.31935 9.56714 -0.356472 -43.2493 3.50705 -3.53778 -27.3462 -16.5764 2.10418 -4.59712 37.1528 -13.8111 5.82328 9.61819 -0.917488 -1.08324 0.987346 -9.34208 -0.0766034 2.37746 -4.29888 0.903049 9.57817 -14.2605 2.25265 -13.2334 -0.0997183 0.0462048 0.000530889 0.662642 
189.092 103.048 3.92874 -3.41043 -0.61296 -90.0756 0.000322215 1.50504 2.71232 -0.213973 9.19155 19.6663 -3.22275 -11.2443 -0.0444942 -1.33904e-009 8.75235e-006 -1.47764e-008 4.01668 6.21956 1.25638 -3.22322 -3.89359 1.98449 38.0766 1.76052 -0.0342181 39.1124 -21.6749 2.6704 8.30546 34.2031 8.28126 -8.13234 9.57622 -0.395587 -43.466 3.53317 -3.55671 -27.2952 -16.4758 1.94492 -4.52496 37.1515 -13.9046 5.82328 9.61819 -0.917488 -1.22918 0.547202 -8.78573 -0.0969332 2.34741 -4.3237 0.913902 9.64132 -14.1691 2.22735 -13.2599 -0.0997291 0.0462048 0.000530889 0.662642 
189.106 103.048 3.9243 -3.42364 -0.61444 -90.1437 0.00748192 1.51006 2.73351 -0.234027 9.20819 19.7096 -3.22501 -11.2548 -0.0444958 -1.33904e-009 8.75235e-006 -1.47764e-008 3.98736 6.21756 1.28679 -3.18832 -3.83786 2.01158 38.0076 1.76052 -0.0334448 39.2085 -21.6222 2.74945 8.3652 33.9375 8.26548 -8.30049 9.5733 -0.536875 -43.566 3.54312 -3.56118 -27.2767 -16.3445 1.87601 -4.42329 37.2155 -14.0197 5.82328 9.61819 -0.917488 -1.37875 0.263892 -8.50985 -0.10143 2.32373 -4.32538 0.908287 9.68773 -14.1048 2.20108 -13.2639 -0.0997308 0.0462048 0.000530889 0.662642 
189.115 103.048 3.91572 -3.42825 -0.610457 -90.1965 0.0158909 1.5141 2.75096 -0.242279 9.20754 19.742 -3.19696 -11.2486 -0.0444949 -1.33904e-009 8.75235e-006 -1.47764e-008 4.0403 6.318 1.31165 -3.28901 -3.9497 2.05248 38.0412 1.76052 -0.0389239 39.1994 -21.3761 2.73878 8.48847 33.2046 8.30713 -8.72689 9.56715 -0.68239 -43.5881 3.54475 -3.56102 -27.2688 -16.1739 1.90922 -4.31316 37.2174 -14.1592 5.82328 9.61819 -0.917488 -1.53068 0.0540955 -8.61199 -0.0849627 2.31574 -4.29617 0.889376 9.68565 -14.0906 2.18925 -13.2552 -0.0997272 0.0462048 0.000530889 0.662642 
189.117 103.048 3.90633 -3.43105 -0.613459 -90.2007 0.0188593 1.52833 2.75775 -0.244362 9.18555 19.7406 -3.18092 -11.2398 -0.0444935 -1.33904e-009 8.75235e-006 -1.47764e-008 4.10581 6.40727 1.31942 -3.42633 -4.06771 2.08145 38.1318 1.76052 -0.0457658 39.1202 -21.311 2.71638 8.50006 32.986 8.35467 -8.92471 9.56443 -0.690757 -43.5511 3.54072 -3.55869 -27.2887 -16.1549 1.96433 -4.24836 37.3247 -14.2124 5.82328 9.61819 -0.917488 -1.59677 -0.123276 -8.6076 -0.0728561 2.32455 -4.27294 0.874665 9.67013 -14.1081 2.20125 -13.263 -0.0997304 0.0462048 0.000530889 0.662642 
189.11 103.048 3.89973 -3.43941 -0.628687 -90.1332 0.00919334 1.56311 2.74352 -0.238404 9.12893 19.6899 -3.19664 -11.2221 -0.0444908 -1.33904e-009 8.75235e-006 -1.47764e-008 4.18666 6.42177 1.29437 -3.61043 -4.10664 2.08617 38.2752 1.76052 -0.0515772 39.007 -21.522 2.70915 8.35725 33.555 8.38856 -8.68996 9.56552 -0.532508 -43.3776 3.52082 -3.54562 -27.4203 -16.3757 1.97929 -4.28437 37.6605 -14.0858 5.82328 9.61819 -0.917488 -1.55733 -0.244211 -8.26078 -0.0852192 2.34563 -4.29212 0.882862 9.6741 -14.1446 2.22892 -13.2731 -0.0997346 0.0462048 0.000530889 0.662642 
189.106 103.048 3.89286 -3.43605 -0.646682 -90.0244 -0.00780871 1.58452 2.71479 -0.222972 9.05724 19.6087 -3.1935 -11.1806 -0.0444844 -1.33904e-009 8.75235e-006 -1.47764e-008 4.22885 6.34923 1.2661 -3.74039 -4.03172 2.07912 38.3611 1.76052 -0.0537426 38.957 -21.6093 2.70632 8.18578 33.9877 8.51968 -8.35037 9.56804 -0.343646 -43.1851 3.5005 -3.53454 -27.5916 -16.6871 1.93883 -4.40954 38.0499 -13.8429 5.82328 9.61819 -0.917488 -1.59239 -0.389009 -7.97611 -0.109997 2.36349 -4.33702 0.915773 9.66286 -14.2025 2.23312 -13.2614 -0.0997297 0.0462048 0.000530889 0.662642 
189.113 103.05 3.87994 -3.41041 -0.664526 -89.9149 -0.0183615 1.55808 2.69327 -0.210327 9.02137 19.5177 -3.15998 -11.1348 -0.0444774 -1.33904e-009 8.75235e-006 -1.47764e-008 4.12522 6.22635 1.27316 -3.63337 -3.85545 2.06801 38.2461 1.76052 -0.0490203 39.0587 -21.342 2.71141 8.09577 33.6504 8.77405 -8.27928 9.57081 -0.322285 -43.2227 3.51094 -3.54966 -27.6106 -16.9231 1.90527 -4.5247 38.2734 -13.6519 5.82328 9.61819 -0.917488 -1.81603 -0.669387 -8.01784 -0.129285 2.36621 -4.37203 0.958796 9.61405 -14.2818 2.19433 -13.258 -0.0997283 0.0462048 0.000530889 0.662642 
189.123 103.05 3.86437 -3.39192 -0.687793 -89.7917 -0.0250697 1.51363 2.67666 -0.203407 9.03322 19.406 -3.15697 -11.1122 -0.0444739 -1.33904e-009 8.75235e-006 -1.47764e-008 3.94047 6.18039 1.28348 -3.39581 -3.7435 2.0385 38.0322 1.76052 -0.0410639 39.2143 -21.0455 2.70836 8.07574 33.1787 8.95838 -8.40658 9.57287 -0.462118 -43.4232 3.54226 -3.58145 -27.5009 -17.0568 1.98584 -4.54257 38.3604 -13.6038 5.82328 9.61819 -0.917488 -2.05889 -0.986622 -8.04702 -0.153145 2.35847 -4.40969 1.00455 9.6018 -14.374 2.15974 -13.2935 -0.099743 0.0462048 0.000530889 0.662642 
189.13 103.048 3.85521 -3.40257 -0.715974 -89.6424 -0.045827 1.49813 2.64342 -0.189432 9.04115 19.2762 -3.17889 -11.0961 -0.0444715 -1.33904e-009 8.75235e-006 -1.47764e-008 3.87976 6.29428 1.25612 -3.35456 -3.83995 2.00435 37.9678 1.76052 -0.0373435 39.2363 -21.0331 2.66805 8.07974 33.2994 8.92092 -8.36284 9.57367 -0.494823 -43.4603 3.55172 -3.59459 -27.5056 -17.118 2.16674 -4.48752 38.4559 -13.6394 5.82328 9.61819 -0.917488 -2.1401 -1.16491 -7.79592 -0.199158 2.34015 -4.47978 1.05804 9.69214 -14.4536 2.1648 -13.3375 -0.0997611 0.0462048 0.000530889 0.662642 
189.139 103.041 3.85357 -3.41768 -0.745071 -89.5307 -0.0807838 1.49471 2.60249 -0.172494 9.03346 19.1793 -3.17867 -11.0838 -0.0448058 -1.33904e-009 8.75235e-006 -1.47764e-008 3.96573 6.45265 1.24288 -3.53395 -3.99743 2.02141 38.0403 1.76052 -0.0378031 39.1547 -21.0918 2.62364 8.1274 33.6043 8.77949 -8.0994 9.57028 -0.253663 -43.2929 3.53528 -3.58761 -27.7035 -17.1373 2.29518 -4.44029 38.5334 -13.6735 5.82328 9.61819 -0.917488 -2.14751 -1.26872 -7.47469 -0.257603 2.30013 -4.55855 1.11114 9.82708 -14.4771 2.16647 -13.3769 -0.0997774 0.0462048 0.000530889 0.662642 
189.155 103.03 3.8591 -3.4275 -0.768091 -89.505 -0.112905 1.43782 2.56477 -0.153059 9.16032 19.1673 -3.28668 -11.192 -0.0503592 -1.33904e-009 8.75235e-006 -1.47764e-008 4.03879 6.50763 1.29876 -3.6452 -3.97195 2.09999 38.0078 1.76052 -0.0389412 39.1842 -20.9339 2.6475 8.24374 33.3674 8.70836 -8.05282 9.55639 0.00649815 -43.1938 3.53026 -3.59289 -27.9156 -17.1914 2.30513 -4.43277 38.4671 -13.6887 5.82328 9.61819 -0.917488 -2.21086 -1.45888 -7.17412 -0.31342 2.24296 -4.62147 1.15237 9.96012 -14.4167 2.16118 -13.4667 -0.0987544 0.0462048 0.000530889 0.662642 
